<?xml version="1.0" encoding="utf-8"?>
<!-- Generator: Adobe Illustrator 23.0.3, SVG Export Plug-In . SVG Version: 6.00 Build 0)  -->
<svg version="1.1" id="Layer_1" xmlns="http://www.w3.org/2000/svg" xmlns:xlink="http://www.w3.org/1999/xlink" x="0px" y="0px"
	 viewBox="0 0 426 402" style="enable-background:new 0 0 426 402;" xml:space="preserve">
<style type="text/css">
	.st0{fill:#262626;}
	.st1{fill:#7F7F7F;}
	.st2{fill:#A80025;}
	.st3{fill:#FF8689;}
</style>
<path class="st0" d="M177.1,0.1c2,7.7,4.1,15.3,6.2,23c-5.6,1.6-11.2,3.4-16.7,5.5c-2.8-7.5-5.6-15-8.4-22.4
	C164.5,3.8,170.7,1.8,177.1,0.1z"/>
<path class="st0" d="M206.2,16c0.7,4.7,1.3,9.3,2.1,14c-4.9,0.6-9.7,1.6-14.5,2.7c-1-4.5-2-9.1-3.3-13.6
	C195.7,17.8,200.9,17,206.2,16z"/>
<path class="st0" d="M123.9,22.5c3.9,6.9,7.9,13.8,11.8,20.7c-4.7,2.8-9.4,5.8-13.9,9c-4.6-6.5-9.1-13.1-13.7-19.6
	C113.3,29,118.5,25.6,123.9,22.5z"/>
<path class="st0" d="M155.4,22.4c1.9,4.5,3.7,9.1,5.6,13.6c-5.5,2.3-10.8,4.8-16,7.6c-2.3-4.3-4.6-8.7-6.8-13
	C143.9,27.7,149.7,25.1,155.4,22.4z"/>
<path class="st0" d="M231,30c34.7-0.9,69.3,8.1,99.1,25.9c24.3,14.5,45.2,34.7,60.6,58.5c16.4,25.3,26.5,54.5,29.2,84.6
	c1.9,22.7,0.1,45.6-6.2,67.5c-8.8,31.8-26.4,61.1-50.2,83.9c-16.4,15.8-35.7,28.4-56.7,37.2C278.9,399.3,248,404,218,401
	c-25.6-2.4-50.6-10.3-73-23c-21.1-11.9-39.8-28.1-54.6-47.2c3.2-2.4,6.4-4.8,9.6-7.3c15.6,19.6,35,35.9,57.3,47.3
	c24.5,12.7,52.2,19.3,79.8,19c30.3-0.1,60.6-8.6,86.6-24.1c41.9-24.9,72.4-67.7,81.6-115.6c5.6-28.1,4.2-57.5-4.2-84.9
	c-9-29.5-26-56.6-48.7-77.5c-17.4-15.9-37.9-28.4-60.1-36.1c-23.8-8.3-49.6-11.3-74.6-8.5c-0.5-4.1-1-8.2-1.4-12.3
	C221.2,30.7,226.1,30.3,231,30z"/>
<path class="st1" d="M186.8,35.9c1.2,4.2,2.3,8.4,3.3,12.6c-4.8,1.4-9.6,2.9-14.3,4.7c-1.6-4.1-3.1-8.2-4.6-12.3
	C176.4,39,181.5,37.3,186.8,35.9z"/>
<path class="st1" d="M209.1,35.7c0.6,4.2,1.2,8.4,1.8,12.6c-4.3,0.8-8.7,1.6-13,2.4c-0.9-4.1-1.9-8.2-2.9-12.3
	C199.7,37.3,204.4,36.5,209.1,35.7z"/>
<path class="st1" d="M218.1,47.5c20-2.1,40.5-0.7,60,4.5c33.1,8.5,63.4,27.6,85.5,53.6c17.8,20.8,30.5,46,36.5,72.7
	c7.1,31.4,5.2,64.7-5.7,95c-11,31-31.3,58.7-57.7,78.5c-24.5,18.5-54.1,30-84.6,32.9c-28.9,2.9-58.4-1.9-84.8-13.8
	c-25-11.1-46.9-28.5-63.9-50c2.9-2.3,5.8-4.6,8.8-6.9c16,20.1,36.6,36.5,60.1,46.9c24.6,11,52.1,15.4,78.8,12.7
	c28-2.7,55.1-13.1,77.7-29.8c25.2-18.5,44.6-44.5,55.1-73.9c6.9-19.1,10-39.5,9.2-59.8c-1-29.7-10.6-59-27.5-83.6
	C347.1,99.2,320,78.1,289,66.9c-22.3-8.1-46.3-10.9-69.8-8.5C218.8,54.8,218.4,51.1,218.1,47.5z"/>
<path class="st1" d="M165.9,47.7c1.6,3.9,3.2,7.9,4.9,11.8c-4.6,2.2-9.3,4.2-13.8,6.7c-2-3.8-4-7.5-6-11.3
	C155.9,52.3,160.9,50,165.9,47.7z"/>
<path class="st1" d="M139.3,49.3c2.3,3.9,4.5,7.8,6.7,11.8c-4.3,2.3-8.1,5.6-12.5,7.7c-2.8-3.4-5-7.2-7.7-10.8
	C130.3,54.9,134.8,52.1,139.3,49.3z"/>
<path class="st0" d="M67.8,51.6c5.2,5.1,10.3,10.2,15.5,15.3c-4.3,4.8-8.8,9.4-12.7,14.6c-5.7-4.5-11.3-9.2-17-13.8
	C58.2,62.1,63,56.8,67.8,51.6z"/>
<path class="st0" d="M114.1,55.2c2.9,3.7,5.6,7.5,8.4,11.2c-5.4,4.3-10.7,8.6-15.6,13.4c-3.2-3.4-6.3-6.9-9.6-10.3
	C102.7,64.4,108.2,59.5,114.1,55.2z"/>
<path class="st2" d="M192.2,56.1c0.9,3.7,1.9,7.4,3.1,11.1c-4.3,1.2-8.5,2.5-12.6,4.2c-1.4-3.6-2.8-7.3-4.2-10.9
	C183,58.8,187.6,57.4,192.2,56.1z"/>
<path class="st2" d="M212.2,57.3c0.5,3.7,1,7.3,1.6,11c-3.7,0.6-7.4,1.3-11.1,2.2c-0.8-3.6-1.7-7.3-2.6-10.9
	C204.1,58.7,208.2,57.9,212.2,57.3z"/>
<path class="st2" d="M311.4,81.5c17.2,9.8,32.4,22.8,44.6,38.4c17.9,22.6,29.2,50.3,32.3,79c2.5,22.5,0,45.5-7.3,67
	c-13.4,40-43.8,73.6-82.3,90.8c-23.3,10.6-49.3,15.1-74.8,13.1c-28.6-2.1-56.4-12.5-79.3-29.6c-11.1-8.2-20.9-17.9-29.5-28.6
	c2.6-2.1,5.3-4.2,7.9-6.3c20.2,25.7,49,44.3,81,51.4c18.8,4.3,38.2,4.8,57.2,1.3c23.5-4.2,45.8-14.5,64.4-29.5
	c20.7-16.7,36.7-39.2,45.5-64.4c12-33.6,10.9-71.5-3-104.4c-10-24-26.7-44.9-47.5-60.4c-28.4-21-64.5-31-99.6-27.1
	c-0.3-3.3-0.7-6.6-1.3-9.9C251.2,58.9,283.9,65.8,311.4,81.5z"/>
<path class="st2" d="M174.1,68c1.5,3.4,2.9,6.8,4.3,10.2c-4,1.8-8,3.7-12,5.7c-1.8-3.3-3.5-6.6-5.2-9.9
	C165.5,71.9,169.7,69.7,174.1,68z"/>
<path class="st1" d="M126,71c2.5,3.4,5.1,6.8,7.7,10.2c-4.8,3.8-9.5,7.7-13.9,11.9c-2.9-3-5.8-6.1-8.8-9.2
	C115.7,79.3,120.8,75,126,71z"/>
<path class="st2" d="M152.7,72.7c1.8,3.4,3.8,6.7,5.7,10.1c-3.6,2.1-7.1,4.3-10.4,6.7c-2.2-3.1-4.4-6.3-6.6-9.5
	C145.1,77.5,148.9,75.1,152.7,72.7z"/>
<path class="st3" d="M197,73.3c0.8,3.3,1.6,6.6,2.6,9.8c-3.7,1.1-7.4,2.4-11.1,3.7c-1.4-3.2-2.6-6.4-3.7-9.8
	C188.8,75.6,192.8,74.3,197,73.3z"/>
<path class="st3" d="M214.5,73.3c0.6,3.4,1.1,6.7,1.5,10.1c-3.3,0.6-6.7,1.2-10,1.6c-0.7-3.2-1.4-6.4-2-9.6
	C207.5,74.7,211,74,214.5,73.3z"/>
<path class="st3" d="M257,77.9c31.1,4.7,60.2,20.5,81.3,43.8c17.1,18.8,29,42.3,33.8,67.3c4.3,22.1,3.2,45.3-3.2,67
	c-8.7,29.4-27.3,55.8-52.3,73.6c-23.5,17-52.5,26.4-81.6,26c-41.8,0.1-82.8-20-108.2-53.2c2.4-1.8,4.7-3.7,7.1-5.5
	c20.2,25.6,49.8,43.2,82,48c23.1,3.6,47.2,0.8,68.8-8.2c25.2-10.3,46.8-28.7,61.1-51.9c12.5-20,19.2-43.4,19.6-66.9
	c0.4-24.1-6-48.4-18.4-69.1c-14.3-24-36.4-43.2-62.3-53.8c-19.8-8.3-41.2-11-62.5-9.2c-0.4-3-0.7-6.1-1-9.1
	C233.3,76,245.2,76,257,77.9z"/>
<path class="st3" d="M180.4,83.1c1,2.8,3.4,6.5,3.3,9.4c-3.2,1.9-6.7,3.2-10,5c-1.8-2.9-3.3-5.9-4.7-9
	C172.7,86.5,176.5,84.7,180.4,83.1z"/>
<path class="st1" d="M102.7,86c3.2,2.9,6.1,6.1,9.2,9.1c-3.5,3.8-6.9,7.6-10.2,11.6c-3.5-2.7-6.9-5.4-10.2-8.3
	C95.1,94.2,98.7,89.9,102.7,86z"/>
<path class="st3" d="M159.9,85.3c1.5,2.9,4.2,6.1,4.8,9.3c-2.8,2.2-6.1,3.9-9,6c-2.1-2.9-4.1-5.8-6.1-8.7
	C152.9,89.6,156.4,87.4,159.9,85.3z"/>
<path class="st2" d="M138.9,88.5c2.3,2.9,4.5,5.9,6.7,8.8c-4.2,3.3-8.1,6.9-12.1,10.4c-2.6-2.7-5.2-5.4-7.7-8.2
	C130.3,95.8,134.3,91.8,138.9,88.5z"/>
<path class="st0" d="M68.7,90.6c3.9,2.9,7.7,6,11.7,8.8c-3.8,5.2-7.4,10.5-10.6,16c-4.2-2.5-8.3-5-12.5-7.5
	C60.7,101.9,64.7,96.2,68.7,90.6z"/>
<path class="st0" d="M30.5,102.5c6.4,3.3,12.6,7.1,19,10.5c-2.7,4.9-5.1,9.8-7.5,14.9c-6.6-3-13.1-6-19.7-9
	C24.9,113.4,27.4,107.7,30.5,102.5z"/>
<path class="st3" d="M148.8,101.5c2,2.7,4,5.4,6,8.1c-3.7,3-7.3,6-10.8,9.3c-2.3-2.4-4.6-4.8-6.8-7.2
	C140.8,107.9,144.7,104.6,148.8,101.5z"/>
<path class="st2" d="M121.1,104.3c2.7,2.6,5.3,5.2,7.9,7.9c-2.9,3.3-5.8,6.5-8.7,9.8c-2.9-2.3-5.8-4.7-8.6-7c2.4-2.9,5-5.7,7.5-8.5
	C119.9,105.7,120.5,105,121.1,104.3z"/>
<path class="st1" d="M90.5,107.3c3.5,2.3,6.7,5.1,10.1,7.6c-3.3,4.4-6.3,9.1-9.3,13.8c-3.6-2.2-7.2-4.4-10.8-6.6
	C83.7,117.1,86.7,111.8,90.5,107.3z"/>
<path class="st3" d="M130,113.1c2.4,2.4,4.8,4.8,7.3,7.2c-2.6,3.1-5.2,6.1-7.9,9.1c-2.6-2.2-5.3-4.3-7.9-6.5
	c2.2-2.6,4.4-5.2,6.7-7.8C128.7,114.4,129.4,113.8,130,113.1z"/>
<path class="st2" d="M103.6,117.1c3,2.4,6,4.7,9,7c-2.9,4.1-5.7,8.2-8.3,12.4c-3.2-2.1-6.4-4-9.8-5.9
	C97.2,125.9,100.3,121.4,103.6,117.1z"/>
<path class="st3" d="M114.9,125.9c2.9,2,5.6,4.2,8.4,6.3c-2.6,3.7-5.1,7.4-7.5,11.2c-3-1.8-6-3.6-9-5.5
	C109.4,133.9,111.9,129.7,114.9,125.9z"/>
<path class="st1" d="M73,126.2c3.8,2.1,7.6,4.3,11.4,6.5c-2.2,3.9-4.1,7.9-6,11.9c-3.9-1.9-7.9-3.7-11.9-5.5c1.7-3.5,3.4-7,5.2-10.4
	C72.1,127.9,72.5,127,73,126.2z"/>
<path class="st2" d="M91.2,136.6c3.5,1.6,6.7,3.7,10,5.5c-1.9,3.3-3.6,6.8-5.2,10.3c-3.5-1.6-7-3.1-10.4-4.7
	C87.3,144,88.9,140.1,91.2,136.6z"/>
<path class="st0" d="M49.4,140.4c4.5,1.3,8.7,3.5,13,5.3c-2.5,5.9-4.5,11.9-6.3,18c-4.5-1.4-8.9-2.7-13.5-3.9
	C44.8,153.2,46.8,146.6,49.4,140.4z"/>
<path class="st3" d="M106.6,145.1c3,1.7,5.9,3.4,8.9,5.1c-1.5,3.1-3,6.1-4.5,9.2c-3.1-1.4-6.3-2.9-9.4-4.3
	C103.2,151.7,104.8,148.4,106.6,145.1z"/>
<path class="st0" d="M250.5,233.5c-2.9-2.2-6.2-3.6-8.8-6.2c-5.7-5.2-8.6-12.5-8.3-20.3c0-4.2,1.4-8,2.9-11.9
	c-11.9-31.1-23.6-62.4-35.3-93.6c-7.2,0-14.5-0.1-21.7,0.1c-0.6,1.9-1.2,3.7-1.9,5.6c-20,53.4-39.9,106.9-60,160.3
	c10.1-0.1,20.3,0,30.4-0.1c5.4-14.4,11-28.6,16.5-42.9c17.6,0,35.3,0,52.9,0c5.3,14.3,10.8,28.6,16,42.9c10.1,0.1,20.3,0,30.4,0.1
	C259.1,256.3,255.1,244.6,250.5,233.5z M174.2,194.9c4.9-15.5,9.8-30.9,14.7-46.4c0.4-1.4,0.8-2.7,1.3-4.1
	c5.9,16.7,10.7,33.7,16.3,50.5C195.7,194.9,185,194.9,174.2,194.9z"/>
<path class="st1" d="M67.8,147.8c3.9,1.5,7.8,3.3,11.7,4.9c-2.2,5.3-4,10.7-5.6,16.2c-4.1-1.2-8.2-2.4-12.3-3.6
	C63.5,159.4,65.3,153.4,67.8,147.8z"/>
<path class="st0" d="M7.2,149.6c8.2,2.1,16.2,4.8,24.4,7c-2.5,8.5-4.6,17.1-5.6,25.9c-8.4-1.3-16.9-2.6-25.3-4
	C2.5,168.9,4.1,158.9,7.2,149.6z"/>
<path class="st0" d="M298.3,150.3c10.4,0,20.8,0.1,31.1,0c-0.1,39.5,0,79,0,118.6c0,7.3-0.3,15-2.7,22
	c-3.8,10.5-11.2,19.5-21.3,24.5c-19.5,9.9-45,4.8-59.3-11.7c-6-7.1-8.7-15.9-9-25.1c10.3,0,20.6,0,30.9-0.1c1.1,2.9,2.1,5.8,4.5,8
	c4,3.5,9.4,4.3,14.5,3.3c3.5-0.6,6.6-2.3,8.3-5.5c2.3-4.6,3.1-10.2,3-15.3c0-17-0.1-34,0.1-51c-0.3-10.7,0-21.3,0-32
	C298.2,174,298.5,162.1,298.3,150.3z"/>
<path class="st2" d="M87.7,156.1c3.4,1.4,6.8,2.9,10.2,4.3c-1.7,4.6-3.3,9.3-4.8,14.1c-3.6-1.1-7.1-2.1-10.7-3.2
	c1.4-4.2,2.6-8.3,4.2-12.4C87,157.9,87.4,157,87.7,156.1z"/>
<path class="st3" d="M102.8,162.3c0.9,0.4,1.8,0.8,2.7,1.1c2.2,0.9,4.3,1.8,6.4,2.7c-1.4,4.1-2.8,8.2-4.1,12.4
	c-3.2-0.8-6.4-1.6-9.6-2.5C99.3,171.3,101,166.8,102.8,162.3z"/>
<path class="st1" d="M49.7,169.7c4.3,1.2,8.6,2.3,12.9,3.4c-1.1,5-2.1,9.9-2.9,14.9c-4.4-0.7-8.8-1.4-13.2-2
	C47.3,180.5,48.3,175.1,49.7,169.7z"/>
<path class="st2" d="M73.6,175.9c3.7,1,7.4,2,11.2,3c-0.9,4.2-1.8,8.4-2.5,12.6c-3.8-0.6-7.7-1.2-11.5-1.9
	C71.6,185.1,72.5,180.5,73.6,175.9z"/>
<path class="st3" d="M89.6,180.1c3.4,0.8,6.8,1.7,10.2,2.7c-0.8,3.7-1.5,7.5-2.2,11.3c-3.5-0.4-6.9-1-10.4-1.6
	C87.8,188.2,88.6,184.1,89.6,180.1z"/>
<path class="st0" d="M28.8,191.5c4.8,0.6,9.7,1.2,14.5,1.9c-0.9,5.4-1.1,10.9-1.1,16.3c-4.9-0.1-9.8-0.2-14.6-0.3
	C27.6,203.4,28.2,197.5,28.8,191.5z"/>
<path class="st1" d="M51.5,194.4c4.3,0.2,8.5,1.1,12.8,1.5c-0.6,4.9-1,9.7-1.1,14.6c-4.3-0.2-8.6-0.3-13-0.3
	C50.6,205,50.6,199.6,51.5,194.4z"/>
<path class="st2" d="M71.9,197.1l0.7,0.1c3.6,0.4,7.2,0.8,10.8,1.3c-0.5,4.3-0.9,8.5-1,12.8c-3.8-0.4-7.6-0.6-11.4-0.6
	C71.4,206.1,71.6,201.6,71.9,197.1z"/>
<path class="st2" d="M281.9,208.1c3.3-6,6.9-11.9,10.1-18.1c-3.9,0.2-7.8,0.2-11.6,0.2c-1.9,3.4-3.8,6.7-6,10
	c-1.8-2.1-3.5-4.1-5.4-6.1c3.7-2.5,7-5,8.5-9.4c2-5.9,0.6-12.7-4.4-16.6c-4.2-3.6-10.5-4.3-15.6-2.5c-7.5,2.6-11.4,12.3-8.4,19.5
	c1,2.1,2.5,4,3.8,5.9c-2.9,1.8-5.6,3.5-7.7,6.4c-3.7,4.7-4.3,11.5-2.4,17c3.2,9.4,14.8,14.8,24.1,11.7c4.3-1.6,6.9-4.7,9.8-7.9
	c2.5,2.9,5.2,5.7,7.9,8.5c2.7-2.2,5.3-4.5,7.8-6.9C288.8,215.9,285.3,212,281.9,208.1z M259.9,175.9c3-2.4,7.9-1,8.4,3.1
	c0.5,4.3-3.1,5.8-6.1,7.8c-1.3-1.6-2.9-3.3-3.8-5.1C257.9,179.5,258,177.3,259.9,175.9z M263,216.2c-5.2,1.8-11.4-2.6-10.7-8.2
	c-0.1-4.4,4.1-6.7,7.2-8.9c3.2,3.6,6.5,7.2,9.6,10.9C267.6,212.3,265.8,215.3,263,216.2z"/>
<path class="st3" d="M93.6,199.5c3.3,0.5,6.6,0.9,9.9,1.3c-0.3,3.6-0.7,7.3-0.9,10.9c-3.3-0.1-6.7-0.2-10-0.3
	C92.7,207.4,93,203.5,93.6,199.5z"/>
<path class="st0" d="M13.3,217.8c8,0,15.9,0,23.9,0c-0.1,5.8,0.2,11.7,0.8,17.5c-7.9,0.9-15.8,1.9-23.7,2.5
	C13.5,231.1,13.6,224.4,13.3,217.8z"/>
<path class="st1" d="M44.1,217.7c4.5,0,8.9,0,13.4,0c0.1,5.2,0.4,10.3,0.9,15.5c-4.5,0.5-9,1-13.5,1.4
	C44.6,228.9,44.3,223.3,44.1,217.7z"/>
<path class="st2" d="M76.3,217.7c3.6,0,7.3,0,10.9,0c0.1,4.2,0.3,8.3,0.7,12.4c-3.7,0.3-7.4,0.6-11.1,1.1
	C76.6,226.7,76.5,222.2,76.3,217.7z"/>
<path class="st3" d="M88.7,217.6c3.5,0,6.9,0,10.4,0c0.1,3.8,0.2,7.6,0.4,11.4c-3.4,0.2-6.7,0.5-10.1,0.8
	C88.8,225.8,88.6,221.7,88.7,217.6z"/>
<path class="st3" d="M97.2,235.3c0.7,4.4,1.5,8.7,2.4,13c-3.4,0.9-6.8,1.7-10.1,2.6c-1.2-4.7-2-9.4-2.8-14.1
	C90.2,236.1,93.6,235.6,97.2,235.3z"/>
<path class="st2" d="M82,237.4c0.4,4.9,1.5,9.8,2.6,14.6c-3.8,0.9-7.6,1.8-11.4,2.7c-1-5.3-2.1-10.5-2.8-15.8
	C74.2,238.5,78.1,237.9,82,237.4z"/>
<path class="st1" d="M68.9,239.2c0.6,5.4,1.7,10.7,2.9,15.9c-4.1,1.1-8.2,2.1-12.3,2.9c-1.3-5.7-2.4-11.4-3.2-17.3
	C60.5,240.3,64.7,239.7,68.9,239.2z"/>
<path class="st0" d="M50.5,241.6c1,6,1.9,11.9,3.4,17.8c-4.5,1.1-9.1,2.3-13.7,3.3c-1.4-6.4-2.5-12.7-3.5-19.1
	C41.3,243,45.9,242.4,50.5,241.6z"/>
<path class="st3" d="M107.4,252.4c1.3,3.7,2.5,7.4,3.6,11.2c-3.1,1.2-6.2,2.3-9.3,3.4c-1.4-3.9-2.7-7.9-3.7-11.9
	C101.1,254.2,104.3,253.3,107.4,252.4z"/>
<path class="st2" d="M92.9,256.6c1.2,4.2,2.6,8.3,3.9,12.4c-3.4,1.3-6.9,2.7-10.4,3.9c-1.5-4.4-2.9-8.8-4.3-13.3
	C85.8,258.5,89.3,257.6,92.9,256.6z"/>
<path class="st1" d="M64.1,264.5c1.5,5.1,3.1,10.2,5,15.2c-4.2,1.6-8.4,3.2-12.5,4.9c-2-5.4-3.9-10.9-5.3-16.5
	C55.6,267,59.9,265.8,64.1,264.5z"/>
<path class="st0" d="M44.4,270.1c1.7,5.7,3.4,11.4,5.6,17c-7.4,2.9-14.8,5.7-22.2,8.6c-2.4-6.3-4.5-12.7-6.3-19.1
	C29.1,274.4,36.8,272.4,44.4,270.1z"/>
<path class="st3" d="M110,270.3c1.7,3.7,3.5,7.4,5.4,11c-2.9,1.9-6,3.5-9.2,5c-2-4-4-8-5.7-12.1C103.7,272.9,106.9,271.6,110,270.3z
	"/>
<path class="st2" d="M94.8,276.8c1.9,4.3,3.9,8.5,6.1,12.6c-3.4,1.8-6.7,3.6-10,5.5c-2.4-4.5-4.6-9-6.5-13.7
	C87.9,279.8,91.3,278.2,94.8,276.8z"/>
<path class="st1" d="M77.1,284.3c2.2,4.9,4.5,9.7,6.9,14.5c-3.8,2.1-7.6,4.2-11.4,6.2c-2.6-5.1-5.1-10.2-7.5-15.5
	C69,287.7,73.1,286,77.1,284.3z"/>
<path class="st3" d="M121.1,285.2c2.6,2,4.5,6.4,6.6,9.1c-2.7,2-5.3,3.9-8,5.9c-2.6-3.2-4.8-6.7-6.9-10.2
	C115.6,288.3,118.2,286.4,121.1,285.2z"/>
<path class="st0" d="M57.4,292.6c2.5,5.5,5.1,11,8,16.4c-4.3,2.4-8.5,4.7-12.9,7c-3-5.8-5.9-11.6-8.4-17.6
	C48.6,296.5,53,294.6,57.4,292.6z"/>
<path class="st2" d="M108.3,292.6c2.3,3.6,4.5,7.2,7.1,10.6c-3,2.2-6,4.4-9,6.6c-2.7-3.7-5.2-7.6-7.7-11.6
	C102,296.5,105.1,294.5,108.3,292.6z"/>
<path class="st1" d="M91,302.9c2.7,4.1,5.2,8.3,8.1,12.2c-3.4,2.5-6.9,5-10.3,7.5c-3.1-4.4-6-8.8-8.7-13.4
	C83.8,307.2,87.3,304.9,91,302.9z"/>
<path class="st0" d="M75.2,312.3c3,4.6,5.7,9.3,9.1,13.6c-3.8,2.8-7.6,5.5-11.4,8.4c-3.5-4.8-6.7-9.8-9.8-14.8
	C67.1,317,71.1,314.6,75.2,312.3z"/>
</svg>
